<?xml version="1.0" standalone="no"?>
<!DOCTYPE svg PUBLIC "-//W3C//DTD SVG 20010904//EN"
 "http://www.w3.org/TR/2001/REC-SVG-20010904/DTD/svg10.dtd">
<svg version="1.0" xmlns="http://www.w3.org/2000/svg"
 width="640.000000pt" height="640.000000pt" viewBox="0 0 640.000000 640.000000"
 preserveAspectRatio="xMidYMid meet">

<g transform="translate(0.000000,640.000000) scale(0.100000,-0.100000)"
fill="#000000" stroke="none">
<path d="M2915 6277 c-765 -364 -1850 -889 -2341 -1135 l-361 -181 -6 -38 c-9
-50 -7 -3419 2 -3458 6 -28 26 -40 296 -175 880 -439 2658 -1290 2696 -1290
39 0 1792 839 2674 1280 289 144 310 157 316 185 9 39 9 3431 0 3470 -6 28
-28 41 -336 195 -848 424 -2594 1258 -2650 1266 -23 3 -91 -25 -290 -119z
m485 -181 c667 -318 2202 -1061 2375 -1149 l90 -45 -375 -184 -375 -184 -205
99 c-113 55 -689 333 -1280 619 -591 286 -1100 533 -1130 548 l-55 28 210 103
c296 144 527 248 550 249 11 0 99 -38 195 -84z m-1298 -1070 c1298 -623 1988
-961 1988 -974 0 -18 -852 -425 -890 -425 -14 0 -187 79 -385 175 -198 97
-423 205 -500 241 -166 77 -1123 538 -1514 729 l-275 133 290 140 c336 161
616 293 626 294 3 1 300 -140 660 -313z m3905 -2204 l-2 -1264 -1310 -632
c-1326 -640 -1373 -662 -1379 -655 -2 2 -6 716 -7 1587 l-4 1582 250 121 c514
248 688 330 693 325 3 -3 8 -245 11 -537 l6 -531 28 -24 c15 -13 37 -24 48
-24 40 0 725 323 778 367 l24 19 8 355 c4 195 8 460 8 590 l1 236 132 63 c73
35 261 126 418 202 l285 137 7 -327 c4 -180 7 -896 5 -1590z m-5128 1689 c779
-374 1939 -935 2084 -1007 l137 -69 0 -401 c0 -220 -3 -934 -7 -1586 l-6
-1185 -66 30 c-36 17 -642 309 -1346 649 l-1280 618 -3 1122 c-4 1255 4 2048
21 2048 5 0 215 -99 466 -219z"/>
</g>
</svg>
