<?xml version="1.0" standalone="no"?>
<!DOCTYPE svg PUBLIC "-//W3C//DTD SVG 20010904//EN"
 "http://www.w3.org/TR/2001/REC-SVG-20010904/DTD/svg10.dtd">
<svg version="1.0" xmlns="http://www.w3.org/2000/svg"
 width="258.000000pt" height="258.000000pt" viewBox="0 0 258.000000 258.000000"
 preserveAspectRatio="xMidYMid meet">

<g transform="translate(0.000000,258.000000) scale(0.100000,-0.100000)"
fill="#000000" stroke="none">
<path d="M2080 2259 c-369 -265 -772 -661 -1109 -1090 l-83 -107 -280 200
-280 201 -81 -81 -80 -80 146 -199 c182 -250 422 -596 506 -731 35 -56 67
-102 71 -102 4 0 31 42 61 92 89 156 286 473 417 671 333 506 640 896 915
1165 l125 122 -121 0 -122 0 -85 -61z"/>
</g>
</svg>
