<?xml version="1.0" standalone="no"?>
<!DOCTYPE svg PUBLIC "-//W3C//DTD SVG 20010904//EN"
 "http://www.w3.org/TR/2001/REC-SVG-20010904/DTD/svg10.dtd">
<svg version="1.0" xmlns="http://www.w3.org/2000/svg"
 width="200.000000pt" height="200.000000pt" viewBox="0 0 200.000000 200.000000"
 preserveAspectRatio="xMidYMid meet">

<g transform="translate(0.000000,200.000000) scale(0.100000,-0.100000)"
fill="#000000" stroke="none">
<path d="M905 1440 c-224 -31 -423 -131 -652 -328 -115 -99 -110 -132 41 -257
167 -139 358 -241 526 -280 97 -23 261 -23 360 0 165 37 360 141 527 280 158
132 158 157 4 286 -269 225 -560 333 -806 299z m226 -152 c69 -32 125 -88 158
-158 34 -74 35 -181 2 -256 -28 -64 -101 -136 -166 -166 -73 -33 -181 -31
-255 3 -202 95 -250 358 -94 512 97 96 234 121 355 65z"/>
<path d="M963 1160 c-145 -33 -174 -228 -44 -304 19 -11 51 -18 81 -18 81 0
142 48 160 125 26 119 -79 224 -197 197z"/>
</g>
</svg>
