<?xml version="1.0" standalone="no"?>
<!DOCTYPE svg PUBLIC "-//W3C//DTD SVG 20010904//EN"
 "http://www.w3.org/TR/2001/REC-SVG-20010904/DTD/svg10.dtd">
<svg version="1.0" xmlns="http://www.w3.org/2000/svg"
 width="512.000000pt" height="512.000000pt" viewBox="0 0 512.000000 512.000000"
 preserveAspectRatio="xMidYMid meet">

<g transform="translate(0.000000,512.000000) scale(0.100000,-0.100000)"
fill="#000000" stroke="none">
<path d="M1709 5105 c-176 -43 -327 -176 -388 -341 -29 -76 -40 -170 -41 -331
l0 -132 -303 -3 -302 -3 -67 -33 c-77 -38 -130 -92 -167 -171 -25 -54 -26 -64
-29 -255 -5 -265 -22 -246 225 -246 l183 0 0 -1533 c0 -1500 0 -1536 20 -1612
53 -209 216 -372 425 -425 76 -19 111 -20 1289 -20 1024 0 1222 3 1281 15 213
45 390 215 445 430 20 76 20 112 20 1612 l0 1533 183 0 c247 0 230 -19 225
247 l-3 199 -33 66 c-38 77 -92 130 -171 167 l-56 26 -301 3 -301 3 -6 182
c-6 191 -16 246 -62 338 -60 118 -177 220 -308 268 l-72 26 -815 2 c-662 1
-826 -1 -871 -12z m1677 -139 c161 -43 278 -172 304 -336 5 -36 10 -125 10
-197 l0 -133 -90 0 -90 0 0 138 c0 75 -5 157 -11 182 -14 62 -54 116 -108 148
l-46 27 -795 0 -795 0 -46 -27 c-54 -32 -94 -86 -108 -148 -6 -25 -11 -107
-11 -182 l0 -138 -90 0 -90 0 0 133 c0 72 5 161 10 197 26 161 143 292 300
336 69 19 1585 19 1656 0z m-61 -316 c43 -16 55 -62 55 -215 l0 -135 -820 0
-820 0 0 135 c0 149 12 198 52 215 32 12 1499 13 1533 0z m1098 -501 c49 -13
105 -63 128 -114 15 -32 19 -66 19 -172 l0 -133 -2010 0 -2010 0 0 133 c0 147
12 188 68 240 63 59 -53 56 1937 57 1247 0 1842 -3 1868 -11z m-263 -2086 c0
-1643 2 -1570 -51 -1680 -13 -27 -50 -75 -83 -108 -66 -65 -138 -105 -224
-124 -75 -16 -2409 -16 -2484 0 -168 36 -309 174 -347 340 -7 29 -11 578 -11
1572 l0 1527 1600 0 1600 0 0 -1527z"/>
<path d="M1162 3387 l-22 -23 0 -1405 c0 -925 4 -1417 10 -1441 18 -63 70
-129 130 -162 l55 -31 1225 0 1225 0 55 31 c60 33 112 99 130 162 6 24 10 517
10 1443 l0 1406 -23 21 -23 22 -1375 0 -1376 0 -21 -23z m2678 -1469 c0 -1268
-1 -1355 -18 -1388 -37 -75 51 -70 -1260 -70 -1291 0 -1222 -3 -1262 62 -20
33 -20 47 -20 1391 l0 1357 1280 0 1280 0 0 -1352z"/>
<path d="M1482 3067 l-22 -23 0 -1180 0 -1181 23 -21 c22 -21 31 -22 243 -22
218 0 221 0 242 23 l22 23 0 1178 0 1177 -25 24 -24 25 -219 0 c-215 0 -219 0
-240 -23z m368 -1202 l0 -1085 -125 0 -125 0 0 1085 0 1085 125 0 125 0 0
-1085z"/>
<path d="M2319 3071 l-24 -19 0 -1187 0 -1187 24 -19 c21 -17 41 -19 241 -19
200 0 220 2 241 19 l24 19 0 1187 0 1187 -24 19 c-21 17 -41 19 -241 19 -200
0 -220 -2 -241 -19z m369 -1208 l2 -1083 -130 0 -130 0 0 1078 c0 593 3 1082
7 1086 4 3 61 5 127 4 l121 -3 3 -1082z"/>
<path d="M3156 3069 l-26 -20 0 -1183 0 -1183 23 -21 c22 -21 31 -22 243 -22
218 0 221 0 242 23 l22 23 0 1180 0 1181 -23 21 c-22 21 -31 22 -239 22 -203
0 -217 -1 -242 -21z m364 -1204 l0 -1085 -125 0 -125 0 0 1085 0 1085 125 0
125 0 0 -1085z"/>
</g>
</svg>
